# xmcd
#
# Track frame offsets:
#	150
#	10510
#	21848
#	31687
#	41259
#	54073
#	68271
#	81108
#	90907
#	101139
#	112956
#	124959
#	136247
#	145133
#	153905
#	164379
#	177081
#	190438
#	199845
#	212608
#	224831
#	235573
#	244844
#	254728
#	265230
#
# Disc length: 3694 seconds
# Revision: 0
# Processed by: cddbd v1.5.2PL0 Copyright (c) Steve Scherf et al.
# Submitted via: dBpowerAMP V12.0
#
DISCID=4a0e6c19
DTITLE=Various Artist - Dizzy Miss Lizzy: The Specialty Story
DYEAR=2013
DGENRE=Rhythm and Blues
TTITLE0=Wynona Carr - Jump Jack, Jump
TTITLE1=Marvin and Johnny - Mama, Mama
TTITLE2=Art Neville - Oooh-Wee Baby
TTITLE3=Little Richard - Ready Teddy
TTITLE4=Lloyd Lambert - King Cotton
TTITLE5=The Chimes - Tears On My Pillow
TTITLE6=David Ford and The Ebbtides - The Sound Of Your Voice
TTITLE7=Ernest Kador - Do Baby Do
TTITLE8=Guitar Slim - Twenty-Five Lies
TTITLE9=Clifton Chenier - Ay Tete Fee
TTITLE10=Jesse Belvin - One Little Blessing
TTITLE11=Lloyd Price - Oo Ee Baby
TTITLE12=Neal Johnson - True To You Baby
TTITLE13=Percy Mayfield - Baby, You're Rich
TTITLE14=Roy Milton - What Can I Do
TTITLE15=Larry Williams - Just Because
TTITLE16=Sam Cooke - Forever
TTITLE17=The Dukes - Oh Kay
TTITLE18=The Twilighters - It's True
TTITLE19=Wynona Carr - Someday, Somewhere, Somehow
TTITLE20=Don and Dewey - The Letter
TTITLE21=Vernon Green and The Phantoms - Sweet Breeze
TTITLE22=Chuck Higgins - Broke
TTITLE23=Little Richard - Send Me Some Lovin'
TTITLE24=Rene Hall - Flippin'
EXTD=
EXTT0=
EXTT1=
EXTT2=
EXTT3=
EXTT4=
EXTT5=
EXTT6=
EXTT7=
EXTT8=
EXTT9=
EXTT10=
EXTT11=
EXTT12=
EXTT13=
EXTT14=
EXTT15=
EXTT16=
EXTT17=
EXTT18=
EXTT19=
EXTT20=
EXTT21=
EXTT22=
EXTT23=
EXTT24=
PLAYORDER=
